<svg xmlns="http://www.w3.org/2000/svg" xmlns:xlink="http://www.w3.org/1999/xlink" viewBox="0 0 600 600"><defs><style>.cls-1{fill:none;}.cls-2{fill:url(#Degradado_sin_nombre_108);}.cls-3{fill:#eaa271;}.cls-4{fill:#fab27f;}.cls-5{fill:url(#Degradado_sin_nombre_29);}.cls-6{fill:#043263;}.cls-7{fill:#072146;}.cls-8{fill:#02a5a5;}.cls-9{fill:url(#Degradado_sin_nombre_27);}.cls-10{fill:#5ac4c4;}.cls-11{fill:url(#Degradado_sin_nombre_32);}.cls-12{fill:#1973b8;}.cls-13{fill:#004481;}.cls-14{fill:#2dcccd;}</style><linearGradient id="Degradado_sin_nombre_108" x1="280.83" y1="-6527.23" x2="411.93" y2="-6773.78" gradientTransform="matrix(1, 0, 0, -1, 0, -6304)" gradientUnits="userSpaceOnUse"><stop offset="0" stop-color="#192647" stop-opacity="0.5"/><stop offset="1" stop-color="#192647" stop-opacity="0"/></linearGradient><linearGradient id="Degradado_sin_nombre_29" x1="1387.02" y1="-6561.06" x2="1414.3" y2="-6669.11" gradientTransform="translate(1696.84 -6304) rotate(180)" gradientUnits="userSpaceOnUse"><stop offset="0" stop-color="#bf8860"/><stop offset="1" stop-color="#bf8860" stop-opacity="0"/></linearGradient><linearGradient id="Degradado_sin_nombre_27" x1="1256.12" y1="-6514.9" x2="1309.03" y2="-6429.29" gradientTransform="translate(1696.84 -6304) rotate(180)" gradientUnits="userSpaceOnUse"><stop offset="0" stop-color="#028484"/><stop offset="1" stop-color="#028484" stop-opacity="0"/></linearGradient><linearGradient id="Degradado_sin_nombre_32" x1="1234.14" y1="-6577.97" x2="1281.82" y2="-6608.15" gradientTransform="translate(1696.84 -6304) rotate(180)" gradientUnits="userSpaceOnUse"><stop offset="0" stop-color="#072146"/><stop offset="1" stop-color="#072146" stop-opacity="0"/></linearGradient></defs><title>9</title><g id="Cuadrados_Blancos" data-name="Cuadrados Blancos"><rect class="cls-1" width="600" height="600"/></g><g id="Capa_17" data-name="Capa 17"><path class="cls-2" d="M515,289.76a21.44,21.44,0,0,0-7.9-42.08l7.12-13.4,5.5-10.28h0L399.59,160.08l-9.16,17.22h0l-39.34,74H336.85a47.15,47.15,0,0,0-6.77-17.36,3.17,3.17,0,0,0-4.37-1,3.49,3.49,0,0,0-.63.52L263.51,301.1v.08l-.06-.05-18.33,27.41c-7,10.4-29.83,69-34.18,80.29a17.23,17.23,0,0,0-17.09,2.9l-24.78,20.79A17.19,17.19,0,0,0,167,456.75a16.65,16.65,0,0,0,2.27,2.25,261.07,261.07,0,0,1,60.06,71.57,17.2,17.2,0,0,0,23.41,6.55,17.8,17.8,0,0,0,2.59-1.79l24.78-20.79a17.24,17.24,0,0,0,5.33-18.36c.49-.07,1-.14,1.49-.23,30.71-5.51,71.61-31.19,89.2-53.59l49.91.33a31,31,0,0,0,26-13.75h34.39a9.4,9.4,0,0,0,9.05-6.89,9.39,9.39,0,0,0,8.72-7.38,9.38,9.38,0,0,0,4.52-8v-6.43a21.45,21.45,0,0,0,0-37.71V358.2h5.61a5.38,5.38,0,0,0,0-10.75,5.21,5.21,0,0,1,5.37,5.05V339.44a21.43,21.43,0,0,0-10-39.44l-.88-.06v-8.68Z"/><path class="cls-3" d="M303.23,215.14l51.79,47L463.82,236A21.44,21.44,0,0,0,480,218.55h0A21.46,21.46,0,0,0,455.84,194Z"/><path class="cls-3" d="M304.72,235.8l41.07,56.63,111.84-3.31A21.4,21.4,0,0,0,477,275.32h0a21.43,21.43,0,0,0-18.57-29Z"/><path class="cls-3" d="M300.53,276.23l33.36,61.49L445.2,349a21.44,21.44,0,0,0,21-11.16h0a21.45,21.45,0,0,0-14.64-31.19Z"/><path class="cls-4" d="M194,274.84l18.33-27.42,29.84,24L263.75,254l36.72,72.79,19.29,22L406.12,358h0a31,31,0,0,1-31,31h-.23L325,388.68c-17.59,22.33-58.51,48.06-89.2,53.56s-50.68-12.41-50.7-12.43l-26-72.8S186.26,286.35,194,274.84Z"/><circle class="cls-5" cx="296.77" cy="308.73" r="57.91"/><rect class="cls-6" x="428.14" y="282.66" width="35.03" height="21.81"/><path class="cls-7" d="M443.86,368.37H270.17a10.71,10.71,0,0,1-10.71-10.71V214.32a10.72,10.72,0,0,1,10.71-10.71H443.86a9.4,9.4,0,0,1,9.38,9.35V359a9.4,9.4,0,0,1-9.4,9.4Z"/><polygon class="cls-6" points="262.81 349.41 267.09 355.33 278.41 349.11 262.81 349.41"/><rect class="cls-8" x="318.11" y="124.57" width="122.98" height="136.06" transform="matrix(0.47, -0.88, 0.88, 0.47, 31.33, 437.35)"/><polygon class="cls-9" points="348.4 106.37 468.53 170.25 436.35 230.79 372.63 186.39 339.24 123.6 348.4 106.37"/><circle class="cls-10" cx="368.41" cy="213.65" r="31.19"/><path class="cls-10" d="M341.29,128.89a18.91,18.91,0,0,0,25.59-7.82h0l-16.7-8.88Z"/><path class="cls-10" d="M446,163.15a18.9,18.9,0,0,0,7.8,25.57h0l8.88-16.7Z"/><rect class="cls-6" x="263.76" y="197.58" width="193.79" height="164.76" rx="9.4"/><path class="cls-11" d="M428.13,304.31l29.66.16v-33H428.13a16.45,16.45,0,0,0-16.43,16.44h0A16.44,16.44,0,0,0,428.13,304.31Z"/><path class="cls-12" d="M428.13,293.57l35,.15h0a5.23,5.23,0,0,1,5.37,5.09V271.44a10.76,10.76,0,0,0-10.74-10.75H428.13a16.45,16.45,0,0,0-16.43,16.44h0A16.44,16.44,0,0,0,428.13,293.57Z"/><circle class="cls-6" cx="463.16" cy="299.1" r="5.37"/><circle class="cls-13" cx="428.13" cy="277.13" r="10.82"/><path class="cls-14" d="M117.92,378.82a17.18,17.18,0,0,0,.16,26.47,256,256,0,0,1,33.26,33.08,255.68,255.68,0,0,1,26.8,38.49,17.16,17.16,0,0,0,26,4.76l24.78-20.79A17.26,17.26,0,0,0,233,439.55,251.17,251.17,0,0,0,203,395a252.33,252.33,0,0,0-38.63-37.36,17.26,17.26,0,0,0-21.67.37Z"/><circle class="cls-8" cx="200.11" cy="452.07" r="10.82"/><path class="cls-4" d="M212.32,247.39l10,17.78,1.73,47.91,53.87-80.22a47.46,47.46,0,0,0,1-52.65h0a3.17,3.17,0,0,0-4.37-1,3.49,3.49,0,0,0-.63.52Z"/></g></svg>